<svg version="1.1" id="Uploaded to svgrepo.com" xmlns="http://www.w3.org/2000/svg" xmlns:xlink="http://www.w3.org/1999/xlink" x="0px" y="0px"
	 viewBox="0 0 32 32" style="enable-background:new 0 0 32 32;" xml:space="preserve">
<style type="text/css">
	.hatch_een{fill:#265AA5;}
	.hatch_twee{fill:#FFC5BB;}
</style>
<g>
	<path class="hatch_twee" d="M2,29.158v-1.414L8.744,21h1.414L2,29.158z M19.157,24l3-3h-1.414l-3,3H19.157z M28.157,15h-1.414l-5,5
		h1.414L28.157,15z M13.743,24h1.414l3-3h-1.414L13.743,24z M31,18.743L29.743,20H31V18.743z M1,18.158L4.158,15H2.744L1,16.744
		V18.158z M6.158,21H4.744L2,23.744v1.414L6.158,21z M15.157,20l5-5h-1.414l-5,5H15.157z M8.158,15H6.744l-5,5h1.414L8.158,15z
		 M30,23.743L22.743,31h1.414L30,25.157V23.743z M7.158,20l5-5h-1.414l-5,5H7.158z M17.743,20h1.414l5-5h-1.414L17.743,20z M31,15
		h-0.257l-5,5h1.414L31,16.157V15z M30,27.743L26.743,31h1.414L30,29.157V27.743z M22,27.743V28c0,0.552-0.448,1-1,1h-0.257l-2,2
		h1.414L30,21.157V21h-1.257L22,27.743z M10.387,28.771C10.157,28.587,10,28.317,10,28v-0.257L6.743,31h1.414L10.387,28.771z
		 M10,25.157V25c0-0.552,0.448-1,1-1h0.157l3-3h-1.414l-10,10h1.414L10,25.157z M11.158,20l5-5h-1.414l-5,5H11.158z M14.157,29
		h-1.414l-2,2h1.414L14.157,29z M26.157,21h-1.414l-3.19,3.19C21.817,24.37,22,24.657,22,25v0.157L26.157,21z M18.157,29h-1.414
		l-2,2h1.414L18.157,29z"/>
	<path class="hatch_een" d="M13.722,11c-0.12,0-0.24-0.043-0.334-0.128l-2.222-2c-0.205-0.185-0.222-0.501-0.037-0.706
		c0.185-0.205,0.501-0.222,0.706-0.037l1.912,1.721l7.448-5.746c0.219-0.168,0.533-0.128,0.701,0.091
		c0.168,0.218,0.128,0.532-0.091,0.701l-7.778,6C13.938,10.965,13.83,11,13.722,11z"/>
	<g>
		<path class="hatch_een" d="M31,14h-7V2c0-0.552-0.448-1-1-1H9C8.448,1,8,1.448,8,2v12H1c-0.552,0-1,0.448-1,1v5
			c0,0.552,0.448,1,1,1v10c0,0.552,0.448,1,1,1h28c0.552,0,1-0.448,1-1V21c0.552,0,1-0.448,1-1v-5C32,14.448,31.552,14,31,14z M9,2
			h14v12H9V2z M30,31H2V21h28V31z M31,20H1v-5h30V20z"/>
		<path class="hatch_een" d="M11,29h10c0.552,0,1-0.448,1-1v-3c0-0.552-0.448-1-1-1H11c-0.552,0-1,0.448-1,1v3
			C10,28.552,10.448,29,11,29z M11,25h10v3H11V25z"/>
	</g>
</g>
</svg>